<svg id='Location_24' width='24' height='24' viewBox='0 0 24 24' xmlns='http://www.w3.org/2000/svg' xmlns:xlink='http://www.w3.org/1999/xlink'><rect width='24' height='24' stroke='none' fill='#000000' opacity='0'/>


<g transform="matrix(0.31 0 0 0.31 12 12)" >
<g style="" >
<g transform="matrix(1 0 0 1 -3 1)" >
<path style="stroke: none; stroke-width: 1; stroke-dasharray: none; stroke-linecap: butt; stroke-dashoffset: 0; stroke-linejoin: miter; stroke-miterlimit: 4; fill: rgb(133,203,248); fill-rule: nonzero; opacity: 1;" transform=" translate(-29, -33)" d="M 29 5 C 13.536027004737782 5 1 17.536027004737782 1 33 C 1 48.46397299526222 13.536027004737782 61 29 61 C 44.46397299526222 61 57 48.46397299526222 57 33 C 57 17.536027004737782 44.46397299526222 5 29 5 Z" stroke-linecap="round" />
</g>
<g transform="matrix(1 0 0 1 11 1)" >
<path style="stroke: none; stroke-width: 1; stroke-dasharray: none; stroke-linecap: butt; stroke-dashoffset: 0; stroke-linejoin: miter; stroke-miterlimit: 4; fill: rgb(123,190,235); fill-rule: nonzero; opacity: 1;" transform=" translate(-43, -33)" d="M 29 5 L 29 61 C 44.46397299526222 61 57 48.46397299526222 57 33 C 57 17.536027004737782 44.46397299526222 5 29 5 Z" stroke-linecap="round" />
</g>
<g transform="matrix(1 0 0 1 -19.47 1)" >
<path style="stroke: none; stroke-width: 1; stroke-dasharray: none; stroke-linecap: butt; stroke-dashoffset: 0; stroke-linejoin: miter; stroke-miterlimit: 4; fill: rgb(159,221,255); fill-rule: nonzero; opacity: 1;" transform=" translate(-12.53, -33)" d="M 14 33 C 14 21.95 17.88 12.059999999999999 24 5.460000000000001 C 10.707547994885397 7.899624681960346 1.0545425114445308 19.485524468293068 1.0545425114445308 33 C 1.0545425114445308 46.51447553170693 10.707547994885394 58.10037531803965 23.999999999999996 60.54 C 17.88 53.94 14 44.05 14 33 Z" stroke-linecap="round" />
</g>
<g transform="matrix(1 0 0 1 13.47 1)" >
<path style="stroke: none; stroke-width: 1; stroke-dasharray: none; stroke-linecap: butt; stroke-dashoffset: 0; stroke-linejoin: miter; stroke-miterlimit: 4; fill: rgb(117,184,229); fill-rule: nonzero; opacity: 1;" transform=" translate(-45.47, -33)" d="M 44 33 C 44 44.05 40.12 53.94 34 60.54 C 47.292452005114605 58.10037531803965 56.94545748855547 46.514475531706935 56.94545748855547 33 C 56.94545748855547 19.48552446829307 47.292452005114605 7.899624681960347 34 5.460000000000001 C 40.1 12.06 44 21.95 44 33 Z" stroke-linecap="round" />
</g>
<g transform="matrix(1 0 0 1 18 -10.48)" >
<path style="stroke: none; stroke-width: 1; stroke-dasharray: none; stroke-linecap: butt; stroke-dashoffset: 0; stroke-linejoin: miter; stroke-miterlimit: 4; fill: rgb(237,120,153); fill-rule: nonzero; opacity: 1;" transform=" translate(-50, -21.52)" d="M 50 1 C 42.820298252199684 1 37 6.820298252199685 37 14 C 37 18.66 39.81 22.869999999999997 42.78 27.32 C 45.75 31.770000000000003 48.69 36.17 49.35 41.480000000000004 C 49.39058895183401 41.805347642793 49.66713028245667 42.049532615302844 49.995000000000005 42.049532615302844 C 50.322869717543334 42.049532615302844 50.59941104816599 41.805347642793 50.64 41.480000000000004 C 51.31 36.17 54.31 31.67 57.21 27.320000000000004 C 60.11 22.970000000000006 63 18.66 63 14 C 63 6.820298252199685 57.179701747800316 1 50 1 Z" stroke-linecap="round" />
</g>
<g transform="matrix(1 0 0 1 18 -18)" >
<path style="stroke: none; stroke-width: 1; stroke-dasharray: none; stroke-linecap: butt; stroke-dashoffset: 0; stroke-linejoin: miter; stroke-miterlimit: 4; fill: rgb(249,221,143); fill-rule: nonzero; opacity: 1;" transform=" translate(-50, -14)" d="M 50 9 C 47.23857625084603 9 45 11.238576250846034 45 14 C 45 16.761423749153966 47.23857625084603 19 50 19 C 52.76142374915397 19 55 16.761423749153966 55 14 C 55 11.238576250846034 52.76142374915397 9 50 9 Z" stroke-linecap="round" />
</g>
<g transform="matrix(1 0 0 1 0.01 -0.83)" >
<path style="stroke: none; stroke-width: 1; stroke-dasharray: none; stroke-linecap: butt; stroke-dashoffset: 0; stroke-linejoin: miter; stroke-miterlimit: 4; fill: rgb(141,108,159); fill-rule: nonzero; opacity: 1;" transform=" translate(-32.01, -31.17)" d="M 57.68 28.76 L 57.86 28.48 C 61 23.75 64 19.29 64 14.28 C 63.98819002016956 8.29549964161906 60.17377197913446 2.9802583202597006 54.507991923424576 1.053260558090436 C 48.842211867714695 -0.8737372040788287 42.578087655372876 1.0136745550275315 38.919999999999995 5.750000000000009 C 27.19190557621186 1.498477801004773 14.059024975175788 5.22368925637379 6.309999999999988 15.00000000000001 C 6.254285078082194 15.047672517731373 6.2039826318744415 15.101328460352976 6.159999999999998 15.16 C 6.159999999999999 15.16 6.159999999999999 15.16 6.159999999999999 15.23 C -2.023179822541967 25.693357926088986 -2.0231798225419633 40.386642073911005 6.160000000000006 50.849999999999994 C 6.159999999999999 50.849999999999994 6.159999999999999 50.849999999999994 6.159999999999999 50.91 C 6.215331515139075 50.9928897094974 6.282743102843853 51.067042455972654 6.359999999999999 51.129999999999995 C 11.871061413189397 58.044167205180244 20.23965888486544 62.0607908023784 29.081427061144975 62.035461805839915 C 37.92319523742451 62.01013280930144 46.268642717356435 57.945628519205336 51.739999999999995 51 C 51.77565153844434 50.96906841409767 51.80906841409767 50.93565153844434 51.84 50.9 L 51.84 50.9 C 55.848157971475025 45.795996575294836 58.018379144276054 39.48967206342172 58 32.99999999999999 C 57.99595095420586 31.580790119735987 57.889003895337666 30.1637415897324 57.67999999999999 28.759999999999977 Z M 50 2.28 C 56.62741699796952 2.28 62 7.652583002030475 62 14.279999999999996 C 62 18.68 59.18 22.9 56.2 27.369999999999997 C 53.82 30.929999999999996 51.39 34.58 50 38.709999999999994 C 48.61 34.57999999999999 46.18 30.929999999999993 43.8 27.369999999999994 C 40.8 22.899999999999995 38 18.679999999999993 38 14.279999999999994 C 38 7.652583002030475 43.37258300203048 2.2799999999999994 50 2.2799999999999994 Z M 28 6.09 L 28 20 C 24.36020588047481 19.950900221806567 20.73616435100369 19.511724051260106 17.189999999999994 18.68999999999999 C 19.54 11.59 23.56 6.73 28 6.09 Z M 30 6.09 C 32.33 6.42 34.57 7.89 36.57 10.39 C 36.19718454265132 11.65322783199558 36.00527638634368 12.96291682855125 36 14.280000000000003 C 36.024120615284794 16.032771469425477 36.36283022940503 17.766964693721036 37 19.39999999999999 C 34.682529875387345 19.754807762158432 32.34404643564203 19.955249199850883 30 19.999999999999993 Z M 37.78 7.4799999999999995 C 37.64 7.7299999999999995 37.51 7.989999999999999 37.39 8.26 C 36.97503350474071 7.801961551322819 36.53432006765286 7.367925590554478 36.06999999999999 6.959999999999992 C 36.65 7.1 37.22 7.27 37.78 7.46 Z M 22 6.94 C 19.21 9.41 16.86 13.3 15.27 18.16 C 12.942351308461205 17.506102347944648 10.697609256296705 16.58673116365007 8.579999999999993 15.420000000000002 C 12.102521050381842 11.312430770628225 16.77798470841595 8.35803942784661 21.999999999999986 6.9399999999999995 Z M 7.27 17 C 9.599898466081887 18.321363799932108 12.081313281014355 19.355566456223315 14.659999999999993 20.08 C 13.965092712647607 22.648313046977382 13.490044873688761 25.271112383200904 13.240000000000006 27.920000000000016 C 13.187804245446463 28.46944010846927 13.59060972543246 28.957282300896754 14.14 29.009999999999998 L 14.24 29.009999999999998 C 14.755478068294995 29.012583248187216 15.188458018652454 28.622901292865503 15.24 28.11 C 15.483490423662472 25.57168334198222 15.945197347032455 23.059060882193435 16.620000000000005 20.600000000000023 C 20.3513508873418 21.47790665272201 24.16712564239589 21.947334126981744 28.000000000000014 22.000000000000007 L 28 28 C 28 28.552284749830793 28.447715250169207 29 29 29 C 29.552284749830793 29 30 28.552284749830793 30 28 L 30 22 C 32.61289110702562 21.95966745708843 35.21954733063049 21.73242050426134 37.799999999999976 21.320000000000007 C 39.07880576631053 23.81086229311419 40.5289571563171 26.209960675659616 42.13999999999999 28.499999999999986 C 42.7 29.35 43.27 30.2 43.83 31.06 C 43.36683719197576 31.139396875309505 43.02143916407672 31.530570545460236 43 32 L 43 34 C 43 34.5522847498308 43.4477152501692 35 44 35 C 44.5522847498308 35 45 34.5522847498308 45 34 L 45 32.92 C 47.04508845294605 36.043648064667956 48.408106892860076 39.56364318574593 49 43.25 C 49 43.8022847498308 49.4477152501692 44.25 50 44.25 C 50.5522847498308 44.25 51 43.8022847498308 51 43.25 C 51.55 38.91 53.61 35.07 55.95 31.41 C 55.95 31.94 56.010000000000005 32.47 56.010000000000005 33 C 56.01518944440511 38.760572841886045 54.16755554143067 44.37008753782361 50.74000000000001 49 C 48.41001502470852 47.67881285639433 45.92862216160419 46.64461934917358 43.35 45.92 C 44.04486005546383 43.35167630637947 44.519907160716464 40.72888102104093 44.77 38.07999999999999 C 44.822467051233936 37.5277152501692 44.417284749830806 37.037467051233925 43.86500000000001 36.985 C 43.31271525016921 36.932532948766074 42.822467051233936 37.337715250169204 42.77000000000001 37.89 C 42.52646044987073 40.428309800876555 42.06475429798163 42.94092806224411 41.390000000000015 45.4 C 37.65538940905322 44.521373550299074 33.83622246605053 44.05194126582113 29.999999999999996 43.99999999999999 L 30 38 C 30 37.4477152501692 29.552284749830793 37 29 37 C 28.447715250169207 37 28 37.4477152501692 28 38 L 28 44 C 24.163777533949464 44.051941265821135 20.344610590946754 44.521373550299096 16.60999999999997 45.40000000000002 C 15.935245702018385 42.94092806224411 15.473539550129278 40.42830980087655 15.230000000000004 37.88999999999999 C 15.177532948766075 37.337715250169204 14.687284749830795 36.932532948766074 14.135000000000002 36.985 C 13.582715250169208 37.037467051233925 13.177532948766075 37.5277152501692 13.23 38.08 C 13.480092839283541 40.72888102104094 13.955139944536185 43.351676306379474 14.650000000000002 45.92000000000001 C 12.074822388340154 46.64537763458515 9.596829159097075 47.679553670637816 7.270000000000001 49 C 0.24546621856187922 39.489835087549714 0.245466218561873 26.510164912450296 7.2699999999999925 17.000000000000007 Z M 28 59.91 C 23.56 59.269999999999996 19.55 54.41 17.189999999999998 47.31999999999999 C 20.735799414232332 46.49490938800516 24.35984556338005 46.0523801635024 27.99999999999999 46.00000000000001 Z M 30 59.91 L 30 46 C 33.63978896460452 46.049176547275955 37.26382231761049 46.48835172696493 40.80999999999998 47.309999999999995 C 38.45 54.41 34.44 59.27 30 59.91 Z M 8.54 50.58 C 10.657685650859433 49.41342855747901 12.902408900736281 48.494065073971896 15.229999999999977 47.839999999999996 C 16.82 52.7 19.17 56.6 22 59.06 C 16.763510367403935 57.649261509206596 12.0732057629737 54.69429991592514 8.540000000000004 50.58 Z M 36 59.06 C 38.79 56.59 41.14 52.7 42.730000000000004 47.84 C 45.057648691538795 48.49389765205535 47.302390743703285 49.41326883634993 49.419999999999995 50.58 C 45.897478949618154 54.68756922937178 41.22201529158404 57.6419605721534 36 59.06 Z" stroke-linecap="round" />
</g>
<g transform="matrix(1 0 0 1 -4.5 -8.5)" >
<path style="stroke: none; stroke-width: 1; stroke-dasharray: none; stroke-linecap: butt; stroke-dashoffset: 0; stroke-linejoin: miter; stroke-miterlimit: 4; fill: rgb(141,108,159); fill-rule: nonzero; opacity: 1;" transform=" translate(-27.5, -23.5)" d="M 4 31 C 3.4477152501692068 31 3 31.447715250169207 3 32 L 3 34 C 3 34.5522847498308 3.4477152501692068 35 4 35 C 4.552284749830793 35 5 34.5522847498308 5 34 L 5 32 C 5 31.447715250169207 4.552284749830793 31 4 31 z M 9 35 C 9.552284749830793 35 10 34.5522847498308 10 34 L 10 32 C 10 31.447715250169207 9.552284749830793 31 9 31 C 8.447715250169207 31 8 31.447715250169207 8 32 L 8 34 C 8 34.5522847498308 8.447715250169207 35 9 35 z M 14 35 C 14.552284749830793 35 15 34.5522847498308 15 34 L 15 32 C 15 31.447715250169207 14.552284749830793 31 14 31 C 13.447715250169207 31 13 31.447715250169207 13 32 L 13 34 C 13 34.5522847498308 13.447715250169207 35 14 35 z M 19 35 C 19.552284749830793 35 20 34.5522847498308 20 34 L 20 32 C 20 31.447715250169207 19.552284749830793 31 19 31 C 18.447715250169207 31 18 31.447715250169207 18 32 L 18 34 C 18 34.5522847498308 18.447715250169207 35 19 35 z M 24 35 C 24.552284749830793 35 25 34.5522847498308 25 34 L 25 32 C 25 31.447715250169207 24.552284749830793 31 24 31 C 23.447715250169207 31 23 31.447715250169207 23 32 L 23 34 C 23 34.5522847498308 23.447715250169207 35 24 35 z M 29 35 C 29.552284749830793 35 30 34.5522847498308 30 34 L 30 32 C 30 31.447715250169207 29.552284749830793 31 29 31 C 28.447715250169207 31 28 31.447715250169207 28 32 L 28 34 C 28 34.5522847498308 28.447715250169207 35 29 35 z M 34 35 C 34.5522847498308 35 35 34.5522847498308 35 34 L 35 32 C 35 31.447715250169207 34.5522847498308 31 34 31 C 33.4477152501692 31 33 31.447715250169207 33 32 L 33 34 C 33 34.5522847498308 33.4477152501692 35 34 35 z M 39 35 C 39.5522847498308 35 40 34.5522847498308 40 34 L 40 32 C 40 31.447715250169207 39.5522847498308 31 39 31 C 38.4477152501692 31 38 31.447715250169207 38 32 L 38 34 C 38 34.5522847498308 38.4477152501692 35 39 35 z M 50 12 C 48.89543050033841 12 48 12.895430500338414 48 14 C 48 15.104569499661586 48.89543050033841 16 50 16 C 51.10456949966159 16 52 15.104569499661586 52 14 C 52 12.895430500338414 51.10456949966159 12 50 12 z" stroke-linecap="round" />
</g>
<g transform="matrix(1 0 0 1 17.99 -17.89)" >
<path style="stroke: none; stroke-width: 1; stroke-dasharray: none; stroke-linecap: butt; stroke-dashoffset: 0; stroke-linejoin: miter; stroke-miterlimit: 4; fill: rgb(141,108,159); fill-rule: nonzero; opacity: 1;" transform=" translate(-49.99, -14.11)" d="M 50 20 C 53.31370849898476 20 56 17.31370849898476 56 14 C 56 13.447715250169207 55.5522847498308 13 55 13 C 54.4477152501692 13 54 13.447715250169207 54 14 C 53.997823342776314 16.05156087106836 52.44388349834128 17.76886505395035 50.40274703310115 17.975429029034274 C 48.36161056786102 18.181993004118194 46.49511722187252 16.810838276872794 46.08195639850925 14.801309755160993 C 45.66879557514598 12.79178123344919 46.84293492262405 10.795469762418044 48.8 10.18 C 49.3274319360884 10.014314575050761 49.62068542494924 9.452431936088407 49.455 8.924999999999999 C 49.28931457505076 8.39756806391159 48.7274319360884 8.104314575050761 48.199999999999996 8.27 C 45.36357067263619 9.150882790553387 43.59845054722133 11.974396918802654 44.04894182932519 14.910098440512758 C 44.49943311142904 17.845799962222863 47.02995234596557 20.01013669508317 50 20 Z" stroke-linecap="round" />
</g>
<g transform="matrix(1 0 0 1 20.73 -22.04)" >
<path style="stroke: none; stroke-width: 1; stroke-dasharray: none; stroke-linecap: butt; stroke-dashoffset: 0; stroke-linejoin: miter; stroke-miterlimit: 4; fill: rgb(141,108,159); fill-rule: nonzero; opacity: 1;" transform=" translate(-52.73, -9.96)" d="M 51.48 10.28 C 52.03163230441359 10.501453302387056 52.52697366880307 10.843068036448766 52.93 11.279999999999998 C 53.31383070443656 11.63918028479269 53.91022593842015 11.639860747593524 54.2948752627659 11.28155726738104 C 54.67952458711166 10.923253787168557 54.72109024623672 10.328308382841858 54.39 9.92 C 53.78485466083061 9.272449704007327 53.04376525124552 8.76700623571888 52.22 8.439999999999998 C 51.70637518265736 8.235654642562606 51.12434535743739 8.48637518265736 50.919999999999995 8.999999999999998 C 50.715654642562605 9.513624817342636 50.96637518265736 10.095654642562605 51.48 10.299999999999999 Z" stroke-linecap="round" />
</g>
</g>
</g>
</svg>